<svg xmlns="http://www.w3.org/2000/svg" viewBox="0 0 16 16" width="512" height="512">
  <!-- Grass block icon (pixel art style) -->
  <!-- Green top -->
  <rect x="0" y="0" width="16" height="1" fill="#4a8c2a"/>
  <rect x="0" y="1" width="16" height="1" fill="#5a9e32"/>
  <rect x="0" y="2" width="16" height="1" fill="#4a8c2a"/>
  <rect x="0" y="3" width="2" height="1" fill="#6aae3a"/>
  <rect x="2" y="3" width="3" height="1" fill="#4a8c2a"/>
  <rect x="5" y="3" width="2" height="1" fill="#5a9e32"/>
  <rect x="7" y="3" width="2" height="1" fill="#6aae3a"/>
  <rect x="9" y="3" width="3" height="1" fill="#4a8c2a"/>
  <rect x="12" y="3" width="2" height="1" fill="#5a9e32"/>
  <rect x="14" y="3" width="2" height="1" fill="#6aae3a"/>
  <!-- Grass/dirt transition -->
  <rect x="0" y="4" width="3" height="1" fill="#6a4e2a"/>
  <rect x="3" y="4" width="2" height="1" fill="#5a9e32"/>
  <rect x="5" y="4" width="2" height="1" fill="#6a4e2a"/>
  <rect x="7" y="4" width="1" height="1" fill="#5a9e32"/>
  <rect x="8" y="4" width="3" height="1" fill="#6a4e2a"/>
  <rect x="11" y="4" width="2" height="1" fill="#5a9e32"/>
  <rect x="13" y="4" width="3" height="1" fill="#6a4e2a"/>
  <!-- Dirt body -->
  <rect x="0" y="5" width="16" height="1" fill="#7a5c32"/>
  <rect x="0" y="6" width="16" height="1" fill="#6a4e2a"/>
  <rect x="0" y="7" width="16" height="1" fill="#7a5c32"/>
  <rect x="0" y="8" width="16" height="1" fill="#6a4e2a"/>
  <rect x="0" y="9" width="16" height="1" fill="#7a5c32"/>
  <rect x="0" y="10" width="16" height="1" fill="#6a4e2a"/>
  <!-- Dirt detail pixels -->
  <rect x="2" y="6" width="2" height="1" fill="#8a6a3a"/>
  <rect x="10" y="7" width="2" height="1" fill="#8a6a3a"/>
  <rect x="5" y="8" width="1" height="1" fill="#8a6a3a"/>
  <rect x="13" y="9" width="2" height="1" fill="#8a6a3a"/>
  <rect x="1" y="10" width="1" height="1" fill="#8a6a3a"/>
  <rect x="7" y="6" width="1" height="1" fill="#5a3e22"/>
  <rect x="14" y="8" width="1" height="1" fill="#5a3e22"/>
  <rect x="3" y="9" width="1" height="1" fill="#5a3e22"/>
  <!-- Bottom rows -->
  <rect x="0" y="11" width="16" height="1" fill="#7a5c32"/>
  <rect x="0" y="12" width="16" height="1" fill="#6a4e2a"/>
  <rect x="0" y="13" width="16" height="1" fill="#7a5c32"/>
  <rect x="0" y="14" width="16" height="1" fill="#6a4e2a"/>
  <rect x="0" y="15" width="16" height="1" fill="#5a3e22"/>
  <rect x="6" y="12" width="2" height="1" fill="#8a6a3a"/>
  <rect x="11" y="13" width="1" height="1" fill="#5a3e22"/>
  <rect x="4" y="14" width="2" height="1" fill="#8a6a3a"/>
</svg>
